<?xml version="1.0" encoding="utf-8"?>
<!-- Generator: Adobe Illustrator 24.0.1, SVG Export Plug-In . SVG Version: 6.00 Build 0)  -->
<svg version="1.1" id="logo" xmlns="http://www.w3.org/2000/svg" xmlns:xlink="http://www.w3.org/1999/xlink" x="0px" y="0px"
	 viewBox="0 0 150 50" style="enable-background:new 0 0 150 50;" xml:space="preserve">
<style type="text/css">
	.st0{fill:#78C19C;}
	.st1{fill:#B9DCC4;}
	.st2{font-family:'NotoSansJP-Black-90ms-RKSJ-H';}
	.st3{font-size:22.8323px;}
</style>
<g>
	<path class="st0" d="M9.68,35.54c1.96,1.96,3.91,3.91,5.87,5.87c0-11.16,0.01-22.32,0.01-33.49c-1.96-1.89-3.93-3.78-5.89-5.67
		C9.67,13.34,9.67,24.44,9.68,35.54z"/>
	<path class="st0" d="M19.27,34.06c1.96,1.89,3.91,3.79,5.87,5.68c0-7.78,0-15.56,0-23.34c-1.96-1.89-3.91-3.77-5.87-5.66
		C19.27,18.52,19.27,26.29,19.27,34.06z"/>
	<polygon class="st0" points="19.42,5.87 25.28,11.73 25.28,5.87 19.42,0 	"/>
	<polygon class="st0" points="19.27,44.13 25.14,50 25.14,44.13 19.27,38.27 	"/>
	<path class="st0" d="M29.15,8.72c0,11.2,0.01,22.28,0.01,33.48c1.96,1.96,3.91,3.91,5.87,5.87c0-11.15,0.01-22.31,0.01-33.46
		C33.07,12.65,31.11,10.69,29.15,8.72z"/>
</g>
<text transform="matrix(1 0 0 1 44.4251 32.2889)" class="st1 st2 st3">gMoney</text>
</svg>
