<?xml version="1.0" encoding="UTF-8" standalone="no"?>
<svg
   width="32"
   height="32"
   viewBox="0 0 32 32"
   fill="none"
   version="1.1"
   id="svg23"
   sodipodi:docname="logo.svg"
   inkscape:version="1.1 (c68e22c387, 2021-05-23)"
   xmlns:inkscape="http://www.inkscape.org/namespaces/inkscape"
   xmlns:sodipodi="http://sodipodi.sourceforge.net/DTD/sodipodi-0.dtd"
   xmlns="http://www.w3.org/2000/svg"
   xmlns:svg="http://www.w3.org/2000/svg">
  <defs
     id="defs27" />
  <sodipodi:namedview
     id="namedview25"
     pagecolor="#505050"
     bordercolor="#eeeeee"
     borderopacity="1"
     inkscape:pageshadow="0"
     inkscape:pageopacity="0"
     inkscape:pagecheckerboard="0"
     showgrid="false"
     showguides="true"
     inkscape:guide-bbox="true"
     inkscape:zoom="4.9140625"
     inkscape:cx="90.658188"
     inkscape:cy="8.0381558"
     inkscape:window-width="1600"
     inkscape:window-height="837"
     inkscape:window-x="-8"
     inkscape:window-y="-8"
     inkscape:window-maximized="1"
     inkscape:current-layer="svg23" />
  <ellipse
     style="fill:#009c00;fill-rule:evenodd;fill-opacity:1"
     id="path131"
     cx="16"
     cy="16.025436"
     rx="16.050875"
     ry="16.025436" />
  <path
     d="M16 1.33333V30.6667"
     stroke="white"
     stroke-width="2"
     stroke-linecap="round"
     stroke-linejoin="round"
     id="path19" />
  <path
     d="M22.6667 6.66667H12.6667C11.429 6.66667 10.242 7.15834 9.36684 8.03351C8.49167 8.90868 8 10.0957 8 11.3333C8 12.571 8.49167 13.758 9.36684 14.6332C10.242 15.5083 11.429 16 12.6667 16H19.3333C20.571 16 21.758 16.4917 22.6332 17.3668C23.5083 18.242 24 19.429 24 20.6667C24 21.9043 23.5083 23.0913 22.6332 23.9665C21.758 24.8417 20.571 25.3333 19.3333 25.3333H8"
     stroke="white"
     stroke-width="2"
     stroke-linecap="round"
     stroke-linejoin="round"
     id="path21" />
  <text
     xml:space="preserve"
     style="font-style:normal;font-weight:normal;font-size:26.6667px;line-height:1.25;font-family:sans-serif;fill:#ffffff;fill-opacity:1;stroke:none"
     x="34.097019"
     y="22.675371"
     id="text4505"><tspan
       sodipodi:role="line"
       id="tspan4503"
       x="34.097019"
       y="22.675371"
       style="font-style:normal;font-variant:normal;font-weight:normal;font-stretch:normal;font-size:26.6667px;font-family:sans-serif;-inkscape-font-specification:sans-serif;fill:#ffffff;fill-opacity:1">gMoney</tspan></text>
</svg>
